<svg version="1.2" xmlns="http://www.w3.org/2000/svg" viewBox="0 0 1640 664" width="123" height="50">
	<title>New Project</title>
	<style>
		.s0 { fill: #ffffff } 
	</style>
	<path id="Peter Diyo" class="s0" aria-label="Peter Diyo"  d="m137.3 421h-112.7l3.6-18.2h4q8.6 0 16.2-3 7.7-3.3 10.3-15.9l33.5-158.8q2-9.9 2-11.9 0-7-5.6-8.6-5.7-2-14.6-2h-4l4.3-18.2h86.8q35.2 0 55.4 15.9 20.5 15.9 20.5 46.4 0 21.8-9.2 41.1-9.3 19.2-29.2 31.1-19.9 11.9-52 11.9h-22.3l-11.2 50.1q-0.7 3.6-1.3 6.6-0.7 3-0.7 4.7 0 6.9 6 8.9 5.9 1.7 14.9 1.7h9.6zm14.2-216.5l-22.8 106.4h10.6q14.6 0 23.8-8.9 9.3-9.3 13.6-24.2 4.7-15.3 4.7-33.5 0-22.5-7.3-31.1-7.3-8.7-17.3-8.7zm157.1 219.8q-18.2 0-33.4-7-15-7.3-24.2-21.8-9-15-9-37.2 0-18.9 7-39.4 6.9-20.6 20.5-38.5 13.9-17.9 33.8-29.1 19.9-11.3 45.8-11.3 21.2 0 33.1 10 11.9 9.9 11.9 28.1 0 18.3-11.6 33.8-11.6 15.6-31.4 25.2-19.9 9.6-45.4 9.6h-11.3q-1 6-1 14.6 0 17.6 7.3 27.2 7.6 9.6 22.9 9.6 14.2 0 25.5-8.3 11.2-8.6 17.5-18.9 4 4.7 4 13 0 8.6-6.6 18.2-6.6 9.3-20.6 15.9-13.6 6.3-34.8 6.3zm-12.2-97.1h2.6q13 0 23.9-5.7 10.9-5.9 17.2-16.5 6.7-10.6 6.7-24.6 0-9.2-3.4-14.5-3.3-5.7-9.2-5.7-8.3 0-16.3 10.3-7.6 9.9-13.6 25.5-5.6 15.6-7.9 31.2zm151.8 97.1q-16.3 0-28.2-9.3-11.6-9.3-11.6-27.8 0-6.7 1-14.9 1.3-8.3 2.6-14.6l19.9-91.2h-22.2l3.7-17.5q8.3 0 19.5-4.4 11.6-4.6 23.9-14.9 12.3-10.2 23.9-27.1h18.2l-8.6 40.7h34.8l-4.7 23.2h-35.4l-19.6 88.8q-3.3 15.6-3.3 25.2 0 7.3 3.6 11.6 4 4 10 4 5.9 0 11.6-2.6 5.6-2.7 10.6-6.3l6.9 12.6q-10.2 9.9-23.5 17.2-13.2 7.3-33.1 7.3zm148.1 0q-18.2 0-33.5-7-14.9-7.3-24.1-21.8-9-15-9-37.2 0-18.9 7-39.4 6.9-20.6 20.5-38.5 13.9-17.9 33.8-29.1 19.9-11.3 45.8-11.3 21.2 0 33.1 10 11.9 9.9 11.9 28.1 0 18.3-11.6 33.8-11.6 15.6-31.5 25.2-19.8 9.6-45.4 9.6h-11.2q-1 6-1 14.6 0 17.6 7.3 27.2 7.6 9.6 22.8 9.6 14.3 0 25.6-8.3 11.2-8.6 17.5-18.9 4 4.7 4 13 0 8.6-6.6 18.2-6.7 9.3-20.6 15.9-13.6 6.3-34.8 6.3zm-12.2-97.1h2.6q12.9 0 23.9-5.7 10.9-5.9 17.2-16.5 6.6-10.6 6.6-24.6 0-9.2-3.3-14.5-3.3-5.7-9.3-5.7-8.2 0-16.2 10.3-7.6 9.9-13.6 25.5-5.6 15.6-7.9 31.2zm154.7 93.8h-52l27.8-129.3q1.4-5.3 2.4-10.9 1-5.7 1-10.6 0-8.6-11.3-8.6h-7.3l3.6-18.3h70.3l-6.3 40.1h1.3q11.6-21.8 23.2-32.5 12-10.9 30.2-10.9 33.1 0 33.1 26.9 0 17.5-10.6 26.5-10.6 8.6-29.8 8.6 0.7-15.6-2.3-24.5-3-9.3-10.3-9.3-6.6 0-13.6 7.9-6.9 7.7-13.9 21.2-6.6 13.6-12.6 30.9-6 17.2-10.3 35.8zm284.4 0h-107l3.9-18.3h4.3q8.7 0 15.9-2.9 7.7-3.4 10.3-16l32.8-157.7q1-4.3 1.7-7.6 1-3.4 1-5.3 0-6.7-5.7-8.7-5.3-2-14.5-2h-3.7l4-18.2h98.1q41.8 0 64.6 22.2 23.2 21.9 23.2 64 0 29.8-8.6 57-8.6 27.2-25.2 48.4-16.2 20.9-40.4 33.1-23.9 12-54.7 12zm18.6-215.8l-40.5 194.6h6.7q27.5 0 46.7-17.3 19.5-17.2 29.8-47 10.3-29.9 10.3-68 0-32.1-12.6-47.1-12.3-15.2-33.5-15.2zm184.3 8.3q-10.6 0-18.2-5-7.3-5-7.3-15.2 0-15.3 9.9-21.6 10.3-6.3 22.6-6.3 10.2 0 18.2 4.7 8.3 4.6 8.3 15.5 0 14.3-10.6 21.3-10.3 6.6-22.9 6.6zm-16.9 210.8q-18.9 0-29.2-8.6-9.9-9-9.9-24.9 0-7.3 1.6-18.9 2-11.9 6-29.5l10.3-48q1.6-7 2.3-12.6 0.7-6 0.7-9.7 0-6.2-3-8.2-3-2.4-10.6-2.4h-6l3.3-18.2h76.9l-23.2 107.7q-2 10.3-3.3 17.9-1.3 7.7-1.3 14.3 0 13.6 9.9 13.6 4.3 0 7.6-1.7 3.4-2 7.7-5.6l7.3 11.6q-7.7 8.6-18.3 15.9-10.2 7.3-28.8 7.3zm31.8 76.2q-8.6 0-16.9-1.6-8.3-1.7-14.6-4.4l5-19.2q3.3 1.3 9.6 3 6.6 1.3 15.9 1.3 25.5 0 43.1-11.9 17.9-11.9 35.1-32.8l-31.1-155.8q-2-9.9-6.6-13.6-4.3-4-13-4h-2.6l4.3-18.2h64l14.9 85.2q1.6 8.6 3 20.2 1.6 11.6 2.6 22.2 1.3 10.3 1.7 15.6h0.6q12.3-17.6 22.6-34.8 10.6-17.6 16.9-32.8 6.3-15.3 6.3-27.2 0-11.6-5.7-17.2-5.3-5.7-13.9-5.7 0.7-12.9 7.6-20.8 7.3-8 18.6-8 12.6 0 18.9 7.3 6.3 7.3 6.3 19.5 0 25.6-16.3 57.7-15.9 32.2-44 73.9-16.9 25.2-31.2 44.4-14.2 18.9-28.8 31.9-14.3 12.9-31.8 19.5-17.3 6.3-40.5 6.3zm273.1-76.2q-27.5 0-45.1-16.6-17.2-16.9-17.2-50.4 0-18.9 6.3-39.4 6.3-20.6 18.9-38.1 12.6-17.6 31.8-28.5 19.6-11.3 45.4-11.3 16.9 0 30.5 7 13.9 6.6 22.2 21.5 8.3 14.6 8.3 38.1 0 14.6-4 30.8-3.6 16-11.6 31.5-7.6 15.3-19.9 27.9-11.9 12.6-28.5 20.2-16.2 7.3-37.1 7.3zm7-24.9q8.6 0 15.2-7.3 7-7.6 12.3-19.5 5.3-12.3 8.9-26.2 3.7-14.3 5.3-27.5 2-13.6 2-23.9 0-16.9-4.9-24.2-4.7-7.6-13-7.6-7.6 0-14.6 7.3-6.6 7-12.2 18.6-5.3 11.2-9.3 25.1-3.6 14-6 27.9-1.9 13.6-1.9 24.8 0 17.3 4.6 24.9 5 7.6 13.6 7.6z"/>
</svg>